<?xml version="1.0" encoding="UTF-8" standalone="no"?>
<svg
   viewBox="0 0 22 22"
   id="svg2"
   version="1.1"
   sodipodi:docname="SA.svg"
   inkscape:version="1.2.2 (732a01da63, 2022-12-09)"
   xmlns:inkscape="http://www.inkscape.org/namespaces/inkscape"
   xmlns:sodipodi="http://sodipodi.sourceforge.net/DTD/sodipodi-0.dtd"
   xmlns="http://www.w3.org/2000/svg"
   xmlns:svg="http://www.w3.org/2000/svg"
   xmlns:rdf="http://www.w3.org/1999/02/22-rdf-syntax-ns#"
   xmlns:cc="http://creativecommons.org/ns#"
   xmlns:dc="http://purl.org/dc/elements/1.1/">
  <sodipodi:namedview
     id="namedview9"
     pagecolor="#505050"
     bordercolor="#eeeeee"
     borderopacity="1"
     inkscape:showpageshadow="0"
     inkscape:pageopacity="0"
     inkscape:pagecheckerboard="0"
     inkscape:deskcolor="#505050"
     showgrid="false"
     inkscape:zoom="37.909091"
     inkscape:cx="11.065947"
     inkscape:cy="11.2506"
     inkscape:window-width="1920"
     inkscape:window-height="1057"
     inkscape:window-x="3278"
     inkscape:window-y="-8"
     inkscape:window-maximized="1"
     inkscape:current-layer="svg2" />
  <metadata
     id="metadata12">
    <rdf:RDF>
      <cc:Work
         rdf:about="">
        <dc:format>image/svg+xml</dc:format>
        <dc:type
           rdf:resource="http://purl.org/dc/dcmitype/StillImage" />
      </cc:Work>
    </rdf:RDF>
  </metadata>
  <defs
     id="defs3051">
    <style
       type="text/css"
       id="current-color-scheme">
      .ColorScheme-Text {
        color:#4d4d4d;
      }
      </style>
  </defs>
  <rect
     style="color:#4d4d4d;opacity:1;fill:currentColor;fill-opacity:1;stroke:none;stroke-width:0.499988"
     id="rect4142"
     width="0"
     height="5.4997444"
     x="-20.619619"
     y="-8.5306778"
     class="ColorScheme-Text" />
  <path
     id="path4149"
     d="m 19.721078,10.881098 c 0.382168,2.522779 -1.473443,4.669441 -3.494307,4.669441 -2.020863,0 -3.857122,-2.133337 -3.576701,-4.669441 0.313104,-2.831693 1.555838,-4.5705712 3.576701,-4.5705713 2.020864,-3e-7 3.03289,1.5246583 3.494307,4.5705713 z"
     style="color:#000000;clip-rule:nonzero;display:inline;overflow:visible;visibility:visible;opacity:1;isolation:auto;mix-blend-mode:normal;color-interpolation:sRGB;color-interpolation-filters:linearRGB;solid-color:#000000;solid-opacity:1;fill:none;fill-opacity:1;fill-rule:evenodd;stroke:#4d4d4d;stroke-width:0.499988;stroke-linecap:butt;stroke-linejoin:miter;stroke-miterlimit:4;stroke-dasharray:none;stroke-dashoffset:0;stroke-opacity:1;marker:none;color-rendering:auto;image-rendering:auto;shape-rendering:auto;text-rendering:auto;enable-background:accumulate" />
  <path
     id="path4176"
     d="m 16.697179,14.92415 c -0.210907,-0.07348 0.06481,-0.665047 -0.24795,-0.374075 0.02418,0.182201 -0.08057,0.499203 -0.180556,0.170966 -0.05245,-0.413092 0.06233,-0.829632 -0.02378,-1.243009 -0.103117,-0.316299 0.190439,-0.78 -0.07686,-0.987988 -0.116418,0.359593 0.06035,0.763769 -0.02958,1.138208 -0.115774,0.381764 0.158205,0.885369 -0.103516,1.194495 -0.09891,-0.08743 -0.08499,-0.508102 -0.290924,-0.315151 0.310721,0.417806 -0.508545,0.636037 -0.548234,0.170927 0.03553,-0.235638 -0.116257,-0.351398 -0.283551,-0.20064 -0.222115,-0.249851 0.05274,-0.605188 -0.06453,-0.89778 -0.02817,-0.247226 -0.331577,-0.144728 -0.154898,0.05984 0.03291,0.248775 0.0038,0.629574 -0.08149,0.795845 -0.220327,-0.115988 -0.735894,-0.533444 -0.41228,-0.7275 0.211067,-0.33857 -0.1427,-0.09419 -0.282017,-0.05075 -0.268318,-0.07863 -0.06121,-0.378935 -0.02134,-0.452805 -0.245607,0.09015 -0.434513,-0.157916 -0.342838,-0.361166 0.137124,-0.06542 0.731884,0.127452 0.538892,-0.122559 -0.249945,-0.01472 -0.275089,-0.230536 -0.0073,-0.221271 0.384252,-0.186249 -0.163817,-0.284926 -0.270936,-0.05854 -0.133504,0.205307 -0.37634,0.350579 -0.456056,0.04432 -0.305874,-0.174683 0.299682,-0.592748 -0.135958,-0.548313 -0.05343,-0.187963 0.05818,-0.581673 0.276564,-0.28027 0.319947,0.20106 0.02374,-0.366897 -0.16922,-0.362138 -0.0199,-0.262454 0.01159,-0.766391 0.372734,-0.493757 0.208104,-0.141678 -0.436061,-0.220344 -0.259571,-0.4808 -0.05781,-0.241765 0.133752,-0.5644668 0.314661,-0.246555 0.126303,0.19154 0.427972,0.135018 0.186257,-0.08566 -0.231877,-0.09118 -0.591579,-0.4768728 -0.196681,-0.6046424 0.324225,-0.02504 0.59122,0.4870533 0.91298,0.1906102 -0.15099,-0.1030341 -0.498096,-0.1968132 -0.721462,-0.3188893 -0.168534,-0.022297 -0.351568,0.073564 -0.263264,-0.1807429 0.137616,-0.3067327 0.13891,-0.9565057 0.574508,-0.9296879 0.421214,0.031465 -0.117679,0.3745231 0.09354,0.4511912 0.08374,-0.1960097 0.587831,0.033285 0.38247,-0.2241331 -0.15519,-0.187849 -0.253905,-0.424425 -0.548385,-0.3820393 -0.176568,-0.2334517 0.358872,-0.5391031 0.549979,-0.5390627 0.11624,0.075744 0.293344,0.6315682 0.352677,0.2655222 -0.113552,-0.2120691 -0.446602,-0.5424515 -0.0082,-0.6118678 0.285013,-0.1208628 0.7577,-0.2112941 0.966007,0.044696 -0.01146,0.3108345 0.104459,0.633491 0.01186,0.936037 -0.107536,0.1960125 -0.585712,0.060903 -0.505533,0.3821464 0.21655,-0.054569 0.681731,-0.2897416 0.550491,0.1472498 0.103005,0.2989186 -0.472248,0.1802912 -0.163637,0.4305996 0.16624,0.1316269 0.795843,-4.04e-4 0.574689,-0.2162843 -0.394713,0.192676 -0.28828,-0.7977126 0.04449,-0.4391141 0.150459,0.1510115 0.520622,0.031624 0.206122,-0.1025043 C 16.414255,8.2395611 16.156326,7.9918919 16.25418,7.6371507 16.146688,7.275264 16.35258,6.9262375 16.734746,6.978994 c 0.290645,-0.018899 0.701516,0.093517 0.849651,0.3373394 -0.09376,0.1130891 -0.476382,0.5634443 -0.145527,0.4915724 0.1019,-0.2065439 0.278053,-0.5334355 0.494735,-0.2587956 0.307133,0.0505 0.508406,0.564192 0.04658,0.4792091 -0.181813,0.070367 -0.283854,0.378893 -0.355076,0.476926 0.184148,-0.028306 0.328757,0.00766 0.478624,0.08463 0.05156,-0.1282834 -0.317618,-0.3870109 0.01525,-0.433285 0.449176,-0.1064809 0.407722,0.5269812 0.583269,0.7865251 0.150341,0.2603429 -0.06181,0.4191952 -0.308859,0.3267437 -0.215797,0.090342 -0.457594,0.2606662 -0.656703,0.2730807 0.209564,0.3208047 0.56256,-0.081971 0.791584,-0.1393556 0.439516,-0.1209435 0.308408,0.517321 -0.03192,0.5470696 -0.207886,0.082472 -0.154262,0.4043892 0.05762,0.1834692 0.126299,-0.1750229 0.433405,-0.3232135 0.399374,0.02795 0.08296,0.244001 -0.0031,0.439711 -0.257145,0.485693 -0.176521,0.289291 0.199348,0.09028 0.308711,0.0561 0.140604,0.286334 0.09407,0.629196 -0.181263,0.789526 -0.178981,0.181233 0.02051,0.334107 0.136879,0.08989 0.24582,-0.209329 0.343107,0.521514 0.02714,0.385916 0.224437,0.236033 0.110171,0.609608 -0.165081,0.723919 -0.117017,-0.177813 -0.465483,-0.530407 -0.648328,-0.307558 0.08172,0.06138 0.566681,0.273533 0.181791,0.313894 -0.333722,0.136735 0.202985,0.22813 0.321629,0.108189 0.446388,0.02149 0.07106,0.549454 -0.199867,0.428438 0.273462,0.114294 0.105812,0.598212 -0.157478,0.37882 -0.151697,-0.212027 -0.275329,-0.02281 -0.08359,0.10669 0.290842,0.219959 -0.207402,0.583829 -0.418564,0.731511 -0.158812,-0.184238 -0.155967,-0.69024 -0.07207,-0.991536 -0.335487,-0.05527 -0.220766,0.517511 -0.176504,0.746576 0.0895,0.279619 -0.177267,0.241805 -0.315702,0.252149 -0.06159,0.290836 -0.18696,0.6631 -0.556733,0.463867 z m -1.25052,-1.179273 c -0.258731,-0.418368 0.415305,-0.483706 0.509052,-0.638955 -0.312465,-0.238684 -0.505588,0.266281 -0.795831,0.172855 -0.06645,0.133144 0.103074,0.577155 0.286779,0.4661 z m 1.628275,-0.0034 c 0.209232,-0.113305 0.232961,-0.572995 -0.03362,-0.461662 -0.09303,-0.19412 -0.613199,-0.319758 -0.588376,-0.118816 0.262384,0.100043 0.713354,0.217401 0.490245,0.591295 0.01154,0.07284 0.102317,0.0023 0.131754,-0.01082 z M 15.458235,12.39603 c 0.367036,-0.230738 0.778955,-0.561555 0.631373,-1.053017 -0.08235,-0.328435 -0.09537,0.687384 -0.224762,0.165626 -0.26385,-0.280015 -0.627042,0.295836 -0.753291,0.520938 -0.08173,0.231074 0.0646,0.63077 0.34668,0.366453 z m 1.797492,-0.02001 c 0.193367,-0.366522 -0.202252,-0.673775 -0.430846,-0.906692 -0.236054,-0.208809 -0.30898,0.111858 -0.393241,0.188655 -0.0512,-0.144064 -0.09656,-0.644562 -0.135344,-0.205239 -0.08511,0.416605 0.249999,0.670342 0.546486,0.876333 0.10639,0.09898 0.32122,0.252522 0.412945,0.04694 z m -1.026578,-0.835143 c 0.02756,-0.126022 -0.04585,-0.611851 -0.05806,-0.219724 0.01814,0.125403 -0.06867,0.623413 0.06013,0.512401 0.0027,-0.09756 -0.0013,-0.195121 -0.002,-0.292677 z m -1.883768,0.311438 c 0.107836,-0.350005 -0.794765,-0.04727 -0.260196,0.01753 0.08682,0.0059 0.175837,0.007 0.260196,-0.01753 z m 4.131388,-0.0097 c 0.0919,-0.345848 -0.795283,-0.02095 -0.258979,0.02857 0.08689,0.0023 0.176057,6.39e-4 0.258979,-0.02856 z m -4.074117,-0.361144 c -0.04911,-0.277028 -0.630587,-0.404136 -0.693035,-0.221497 0.216892,0.08936 0.470133,0.234697 0.693036,0.221495 z m 3.794713,-0.01054 c 0.07552,-0.164869 0.627274,-0.08481 0.44454,-0.291295 -0.20829,-0.03781 -0.705615,0.09306 -0.600392,0.330856 0.05545,0.01315 0.109397,-0.01293 0.155852,-0.03956 z m -3.432539,-0.274546 c -0.215415,-0.273521 -0.333613,-0.70859 -0.08375,-0.991325 -0.159069,-0.3003403 -0.357573,0.301526 -0.290007,0.471899 0.01495,0.143815 0.158611,0.718169 0.373754,0.519426 z m 3.077522,-0.02002 c 0.155172,-0.3028 0.330123,-0.94636 -0.104471,-1.057728 0.05257,0.249831 0.228464,0.537937 0.04882,0.798837 -0.08104,0.111348 -0.274752,0.497377 0.05566,0.258892 z M 16.01018,10.40913 c 0.248109,-0.280523 0.258687,-0.8316294 -0.04025,-1.0696257 -0.25934,-0.171051 -0.218941,0.051587 -0.06551,0.1869033 0.181158,0.2983683 -0.140773,0.6097024 0.04686,0.8926904 -9.01e-4,0.04476 0.06739,0.03144 0.05891,-0.01 z m 0.4405,-0.02035 C 16.581736,10.030039 16.281275,9.6020712 16.623796,9.2996966 16.247469,9.2581476 16.14822,9.7415445 16.2233,10.041916 c 0.02248,0.112249 0.04172,0.423198 0.22738,0.346859 z M 15.685807,9.2261089 c -0.115409,-0.1959977 -0.14842,0.0463 0,0 z m 1.10883,-0.019178 c 0.04576,-0.1652572 -0.179703,0.140524 0,0 z"
     style="color:#000000;clip-rule:nonzero;display:inline;overflow:visible;visibility:visible;opacity:1;isolation:auto;mix-blend-mode:normal;color-interpolation:sRGB;color-interpolation-filters:linearRGB;solid-color:#000000;solid-opacity:1;fill:#4d4d4d;fill-opacity:1;fill-rule:nonzero;stroke:none;stroke-width:0.243719;stroke-linecap:butt;stroke-linejoin:miter;stroke-miterlimit:4;stroke-dasharray:none;stroke-dashoffset:0;stroke-opacity:1;color-rendering:auto;image-rendering:auto;shape-rendering:auto;text-rendering:auto;enable-background:accumulate" />
  <rect
     class="ColorScheme-Text"
     y="-14.113997"
     x="-9.0568113"
     height="5.5469127"
     width="0"
     id="rect4142-6"
     style="color:#4d4d4d;fill:currentColor;fill-opacity:1;stroke:none;stroke-width:0.502039" />
  <rect
     class="ColorScheme-Text"
     y="-1.7361103"
     x="-10.216499"
     height="4.9220166"
     width="0"
     id="rect4142-0"
     style="color:#4d4d4d;fill:currentColor;fill-opacity:1;stroke:none;stroke-width:0.473668" />
  <path
     id="path4157"
     d="m 8.9650688,14.85573 c -0.252977,-1.845709 -0.296298,-2.302656 0.453105,-3.145617 0.6595132,-0.74185 1.2963962,-0.96655 0.8970462,-2.6347041 -0.245741,-1.026502 -1.3654292,-2.445684 -3.1329352,-2.487121 -0.640377,-0.01501 -1.888207,0.03602 -2.674403,0.431659 -0.978185,0.492248 -1.928695,1.171828 -1.718693,2.389202 0.117782,0.6827841 -0.681289,1.2122231 -1.001158,1.6517471 -0.2721534,0.37396 0.982647,0.295098 1.02316,0.5048 0.116263,0.601801 -0.2648,0.873183 -0.102276,0.906086 0.138066,0.02795 0.429284,0.216825 0.0721,0.38573 -0.146896,0.06946 0.150235,0.25546 0.322895,0.523617 0.127602,0.198177 0.11059,0.50473 0.19352,0.512976 0.609047,0.06057 1.361205,-0.252623 1.635907,-0.0091 0.498077,0.441529 0.394947,0.635258 0.524304,1.12552"
     style="fill:none;fill-rule:evenodd;stroke:#4d4d4d;stroke-width:0.473668;stroke-linecap:butt;stroke-linejoin:miter;stroke-miterlimit:4;stroke-dasharray:none;stroke-opacity:1" />
  <g
     style="fill:#4d4d4d;fill-opacity:1;stroke:none"
     transform="matrix(0.24441384,0,0,0.21811284,-5.2626462,9.0841229)"
     id="g4151">
    <path
       id="path4155"
       d="M 52.120789,11.687032 C 51.039494,10.426932 50.493144,8.6438625 48.888934,7.9019024 47.43962,7.0353239 47.719056,5.3277776 47.583439,3.9816519 46.998359,3.0403674 46.054212,3.9242466 45.507936,4.2390921 46.090705,3.1168427 45.243455,3.485932 44.698469,3.8933568 44.84331,3.1812142 44.517934,4.7547687 43.899192,4.5854176 42.47096,4.8927717 41.035466,5.6565338 39.645358,4.7432106 38.71958,4.3871634 37.078798,5.3704057 36.547782,4.2671233 36.899312,4.1016543 38.454232,3.6618241 37.320194,3.5094449 36.586012,4.0308773 35.672015,4.0582502 35.605826,3.1483618 34.61217,2.4027912 35.924068,1.1432807 35.234065,0.4019261 c 0.422948,-0.27600457 1.88887,-0.15516761 0.803482,-0.7989707 -1.395289,-0.2191493 -1.130396,-1.9886941 -0.107097,-2.5287778 0.491804,-0.4882064 0.43354,-1.2554853 1.167826,-0.542413 0.526164,0.6242874 2.462007,0.1440872 0.941362,-0.150609 -1.460187,-0.4232169 -0.785256,-1.8824458 0.308302,-2.2552784 0.865624,-0.8974045 2.138699,-0.4254876 2.763876,-1.5765285 0.576541,-0.7236852 1.42708,-0.1098966 1.847267,0.1090738 0.328796,-1.4361913 2.266889,-1.4221223 3.476107,-1.4605262 1.190341,0.020557 0.365983,1.6973046 0.635292,1.8163417 0.169376,-0.5620451 2.693418,0.052574 1.43431,-0.6973899 -1.270509,-0.9425328 0.814142,-1.9374944 1.668423,-1.7133754 0.454378,0.9770541 0.325687,2.2357654 0.570535,3.2937236 -0.430062,1.3978786 -1.963446,0.3571834 -2.581489,0.1241895 -0.861097,0.6479902 -1.944204,0.5039628 -2.809196,1.0412495 -1.132904,0.7020188 -1.178557,-0.8857074 -1.463797,-1.2647031 -0.557633,0.7939813 -1.291459,0.7987048 -2.020324,1.2063015 -0.734163,-1.3232452 -1.789312,1.6408033 -2.518184,0.053344 -0.226943,0.8962774 1.74605,0.7620493 0.770556,1.8067827 -0.503902,0.9897349 -2.098772,2.3061677 -0.963985,3.34607135 1.030482,0.86592605 -0.337764,-1.15469185 0.373646,-1.58328795 0.794716,-1.0094237 1.378855,-1.9593416 1.585453,-3.2247883 0.659662,-0.5305545 1.615613,-0.046241 2.450725,-0.3240083 1.242178,0.5578567 2.475729,0.469271 3.752395,-0.094104 1.159319,-0.3370614 2.149211,1.0108446 3.274889,-0.043653 0.45571,-0.5577552 2.583869,-0.7081135 1.438298,0.2921356 -0.731987,0.1899268 -0.486495,1.718946 -0.07998,0.670103 0.785793,-0.5410905 1.398915,-1.1879691 1.528114,-2.1214837 0.775614,-0.034753 1.186669,-0.4631837 1.929613,-0.6289191 1.211819,0.9245931 -1.35446,1.2629004 -1.52853,2.2782779 -0.08823,0.6081672 1.702484,0.8197301 0.838673,0.040557 -0.0594,-1.4510296 3.082341,-0.1069023 2.312439,-1.445116 -0.418189,-0.7866721 1.543554,-0.044175 1.567277,0.6046751 0.990585,1.0440319 -0.571158,1.8027262 -0.414862,3.0044466 -0.186111,0.6061289 -0.448324,1.8402712 0.157095,0.6424389 0.242787,-1.0407146 1.463329,-0.1171132 1.835323,-1.064139 1.356342,0.4252323 0.760552,2.4152618 2.021903,2.92707541 C 62.625022,1.5379652 62.850272,3.09791 61.911574,4.3457609 61.7268,4.9375056 60.608249,5.717443 60.506372,4.6544295 61.153238,6.0323971 58.475562,6.0610188 58.779717,4.7149375 58.705868,3.5684829 58.213892,5.2301451 57.920563,4.3719378 56.834685,3.3952947 55.977987,2.2173576 55.337369,0.91335778 54.898573,0.48187135 53.962062,-0.9594869 53.534592,-0.461388 c -0.08134,1.7731278 -2.275423,1.17331734 -2.447604,-0.2400073 -0.518961,-1.2889033 -2.151852,-1.3538233 -3.343714,-1.4883273 -1.411837,-0.043202 -2.813338,0.2985542 -4.124758,0.7863983 -1.03731,0.3625432 -1.186509,2.7923878 0.03381,2.34927111 0.468245,-1.44488961 1.514308,-0.53050656 1.577042,0.49910799 0.943468,-0.95185113 1.800097,-2.5383405 3.377086,-2.3923452 1.297212,0.1320577 2.62189,1.30401525 2.337926,2.5637725 0.809086,0.5162316 1.119291,1.4750085 0.789562,2.2799574 0.610678,0.8742382 1.133368,0.4371297 0.51208,-0.3432276 0.09583,-0.9167703 1.991579,-0.04706 1.265495,-1.1915264 0.268942,-0.710829 0.881628,-1.0484593 0.775533,-0.044465 0.367561,1.2924263 0.536073,-1.40118629 1.072219,0.1110359 0.620199,0.3544645 -0.395714,1.9567373 0.361185,1.8167562 -0.063,-0.6618427 0.820731,-1.5025668 0.795594,-0.3639782 -0.565228,1.3544119 1.086921,-0.5524791 0.764943,0.7150602 -0.429614,0.6689365 1.049863,0.2832213 0.247753,1.0056094 -0.300336,0.4550344 0.858645,1.3241547 -0.130769,1.8261965 -0.666009,0.8173239 -1.449016,-0.9174181 -1.201051,-0.5388622 0.537241,0.846701 -0.395714,2.2141896 -1.149759,1.1597097 0.163057,-0.5038972 -0.63664,-1.3563893 -0.550237,-0.573191 1.012037,0.8915298 1.191762,3.377879 -0.687005,2.883238 -0.532749,-0.291164 -1.135245,-2.1059783 -0.939352,-0.5808583 0.03708,0.6868533 0.0027,1.6086193 -0.74978,1.9090953 z M 52.906897,7.5071864 C 52.565679,6.5491782 55.021465,6.2214047 53.399022,5.5786833 52.694465,4.83912 51.141611,5.1540617 51.876833,6.375958 c 0.08848,0.3543173 0.7508,2.5769939 1.030064,1.1312284 z M 61.02536,3.8479844 C 61.759023,3.4364814 60.709544,2.568378 60.863921,3.5629132 60.774001,3.7018126 60.787091,4.1564095 61.02536,3.8479844 Z M 57.779115,3.5302956 c -0.608527,-1.2988319 -0.525829,1.048459 0,0 z m 2.233391,-0.9125399 c -0.209214,-1.3453717 -0.479508,0.5082115 0,0 z m 0.520806,-1.1964921 c -0.56578,-0.93309929 -0.379233,0.2132278 0.103173,0.439047 l -0.046,-0.2208139 -0.05717,-0.2182331 z M 40.138327,3.0754163 c -1.125855,0.1235082 -2.309373,-1.8785155 -3.254298,-0.6487396 1.19665,-0.2123163 2.055215,0.7860136 3.254298,0.6487396 z M 57.351749,0.34603189 c 0.654243,-0.56407531 -1.168985,-0.078155 -0.983853,-0.77005289 -0.595676,0.53189804 0.591143,1.04929525 0.983853,0.77005289 z M 38.84538,1.3220549 c -1.580218,-0.1708042 -0.774142,-2.6576184 -2.22798,-2.6425657 -0.951538,-0.1357978 -0.41791,0.4240955 0.166059,0.3016796 0.729607,0.663602 0.188681,1.94226778 1.459665,2.1972718 0.09158,0.040554 0.805169,0.5520256 0.602256,0.1436143 z m 16.023597,-1.8268975 c 0.644093,-1.5933213 -0.803768,0.85739136 0,0 z m 2.572163,-0.5526519 c -0.580929,-0.5219664 -1.067446,0.5667697 0,0 z m -3.129439,-1.6197319 c 0.206155,-1.0512019 -0.895928,0.418515 0,0 z m 1.134697,-0.2160554 c 0.359516,-0.2856595 0.84145,-1.8649454 0.306266,-1.4450763 0.298971,0.6510653 -1.970869,1.8675839 -0.306266,1.4450763 z m -2.522447,-0.5191741 c 0.474265,-0.7941949 -0.805366,0.2954233 -0.164625,0.08115 z m -7.566614,-2.8255444 c -0.515872,-0.2632506 -0.569378,-2.4049905 -1.145128,-1.345485 0.111533,0.5377653 0.256546,2.1701074 1.145128,1.345485 z m -2.803442,0.2442243 c -0.06892,-0.9282727 -1.026201,-0.3121928 0,0 z M 43.20264,5.2999505 c 0.0053,-0.8595155 1.852933,-0.449616 0.468388,-0.061904 -0.139004,0.073348 -0.314105,0.1473869 -0.468388,0.061904 z m 8.734335,-11.7584428 c -1.05239,-0.5204075 -1.673541,-3.093557 0.0247,-3.01344 1.06322,-0.230997 3.640947,1.1961283 2.024152,2.1142225 -0.729363,0.0384 -1.31764,0.4404823 -1.511995,1.081963 -0.20092,0.0382 -0.375835,-0.086562 -0.536865,-0.1827455 z m 0.419528,-1.6394463 c 0.673169,-0.8470506 -0.67567,-0.1358235 -0.0889,0.019186 l 0.06767,-0.014609 0.02122,-0.00458 z"
       style="fill:#4d4d4d;fill-opacity:1;stroke:none" />
  </g>
  <path
     style="fill:#000000;fill-opacity:0"
     d="M 2.1103117,22.553957 V 0.60671463 c 0,21.86810537 0,21.94724237 0,21.94724237 z"
     id="path326" />
  <path
     style="fill:#000000;fill-opacity:0"
     d="M 2.1103117,22.501199 V 0.44844125 Z"
     id="path328" />
</svg>
