<?xml version="1.0" encoding="UTF-8" standalone="no"?>
<svg
   version="1.0"
   width="130pt"
   height="130pt"
   viewBox="0 0 130 130"
   style=""
   preserveAspectRatio="xMidYMid meet"
   id="svg650"
   sodipodi:docname="3D.svg"
   inkscape:version="1.2.2 (732a01da63, 2022-12-09)"
   xmlns:inkscape="http://www.inkscape.org/namespaces/inkscape"
   xmlns:sodipodi="http://sodipodi.sourceforge.net/DTD/sodipodi-0.dtd"
   xmlns="http://www.w3.org/2000/svg"
   xmlns:svg="http://www.w3.org/2000/svg">
  <defs
     id="defs654" />
  <sodipodi:namedview
     id="namedview652"
     pagecolor="#505050"
     bordercolor="#eeeeee"
     borderopacity="1"
     inkscape:showpageshadow="0"
     inkscape:pageopacity="0"
     inkscape:pagecheckerboard="0"
     inkscape:deskcolor="#505050"
     inkscape:document-units="pt"
     showgrid="false"
     inkscape:zoom="4.8115385"
     inkscape:cx="86.562749"
     inkscape:cy="86.978417"
     inkscape:window-width="1920"
     inkscape:window-height="1017"
     inkscape:window-x="1358"
     inkscape:window-y="-8"
     inkscape:window-maximized="1"
     inkscape:current-layer="svg650" />
  <g
     fill="#000000FF"
     stroke="#000000FF"
     id="g616"
     transform="matrix(1,0,0,1.1075436,2.3381295,-11.008919)">
    <path
       d="M 34.75,24.058 9,37.008 V 69 100.993 L 35,114 61,127.007 87,114 113,100.993 V 69 37.007 L 87.007,24.004 C 72.711,16.852 60.899,11.024 60.757,11.054 60.616,11.083 48.913,16.935 34.75,24.058 m 70.366,62.754 -0.384,10.312 -19.882,9.951 -19.883,9.951 L 65.233,90.862 65.5,64.697 85,54.971 104.5,45.245 105,60.873 c 0.275,8.595 0.327,20.268 0.116,25.939 M 57,91.01 v 26 L 37,107 17,96.99 v -26 -26 L 37,55 57,65.01 v 26 M 80.493,28.738 C 91.222,34.094 100,38.712 100,39 c 0,0.288 -8.775,4.904 -19.5,10.259 L 61,58.993 41.5,49.259 C 30.775,43.904 22,39.288 22,39 22,38.611 59.355,19.383 60.743,19.057 c 0.134,-0.031 9.022,4.325 19.75,9.681"
       id="path614" />
  </g>
  <g
     fill="#BFBFBFFF"
     stroke="#BFBFBFFF"
     id="g644"
     transform="translate(2.3381295,0.1558753)" />
  <g
     fill="#BFBFBFFF"
     stroke="#BFBFBFFF"
     id="g648"
     transform="translate(2.3381295,0.1558753)">
    <path
       d="M 100.5,65.5 102,67 100.5,65.5 99,64 l 1.5,1.5"
       id="path646" />
  </g>
  <path
     d="m 45.420734,59.728183 c 5.473288,2.307207 5.473288,2.307207 7.232562,5.543288 0.703898,7.898176 0.703898,7.898176 -2.410854,12.195236 -0.795583,0.731713 -1.591165,1.463428 -2.410854,2.217315 0.994477,0.525919 1.988954,1.05184 3.013566,1.593695 3.279902,3.092013 3.521066,3.668537 3.691621,7.760604 -0.23492,3.550401 -0.715745,5.120916 -2.636872,8.314933 -4.092913,3.269036 -7.403097,4.583266 -12.887709,4.421646 -7.243042,-0.65226 -7.243042,-0.65226 -10.467438,-2.135029 0,-1.829291 0,-3.658581 0,-5.543299 1.15608,0.583084 1.15608,0.583084 2.335514,1.177949 4.981099,1.402414 9.492393,1.061769 14.540464,-0.06928 2.749051,-2.088428 2.749051,-2.088428 2.938228,-5.473997 -0.138528,-3.52018 -0.138528,-3.52018 -3.013568,-5.404711 -4.009524,-1.490752 -7.686198,-2.038118 -11.97893,-2.425188 0,-1.463429 0,-2.926856 0,-4.434632 3.977909,-0.731713 7.955818,-1.463427 12.05427,-2.217314 0,-2.926857 0,-5.853713 0,-8.869262 -3.604201,-1.657431 -6.87145,-1.237012 -10.848843,-1.108658 -1.193372,0.365857 -2.386746,0.731714 -3.616281,1.108658 0.452034,-2.702353 0.452034,-2.702353 1.205427,-5.543289 4.151348,-1.909043 8.711485,-1.527688 13.259697,-1.108657 z"
     fill="#0a9edf"
     id="path677"
     style="stroke-width:1.15603" />
  <path
     d="m 107.7458,39.091128 c 0,18.888346 0,37.776691 0,57.23741 -22.623317,12.814352 -22.623317,12.814352 -30.811296,17.198732 -1.319089,0.713 -1.319089,0.713 -2.664826,1.44041 -6.282486,3.37525 -6.282486,3.37525 -7.435145,3.37525 0,-18.888344 0,-37.776694 0,-57.237414 22.623323,-12.814345 22.623323,-12.814345 30.811302,-17.198741 0.879392,-0.475331 1.758785,-0.950661 2.664825,-1.440395 6.28248,-3.375252 6.28248,-3.375252 7.43514,-3.375252 z"
     fill="#4049c7"
     id="path667"
     style="stroke-width:1.06103" />
  <g
     fill="#3F48CCFF"
     stroke="#3F48CCFF"
     id="g620"
     transform="matrix(1.0487999,0,0,1.1039169,-5.7012745,-5.2062347)"
     style="fill:#050773;fill-opacity:1">
    <path
       d="m 76,78 v 18 l 6.25,-0.006 c 3.438,-0.003 7.924,-0.47 9.97,-1.038 11.844,-3.29 16.608,-19.388 8.478,-28.647 C 96.433,61.452 92.483,60 83.532,60 H 76 V 78 M 93.643,65.635 c 4.829,2.291 6.672,6.338 6.153,13.512 -0.641,8.864 -5.597,12.832 -16.046,12.847 L 80,92 V 78 64 h 5.099 c 2.804,0 6.649,0.736 8.544,1.635"
       id="path618"
       style="fill:#050773;fill-opacity:1" />
  </g>
</svg>
