<?xml version="1.0" encoding="UTF-8"?>
<svg version="1.1" xmlns="http://www.w3.org/2000/svg" width="128" height="128">
<path d="M0 0 C42.24 0 84.48 0 128 0 C128 42.24 128 84.48 128 128 C85.76 128 43.52 128 0 128 C0 85.76 0 43.52 0 0 Z " fill="#000000" transform="translate(0,0)"/>
<path d="M0 0 C42.24 0 84.48 0 128 0 C128 42.24 128 84.48 128 128 C85.76 128 43.52 128 0 128 C0 85.76 0 43.52 0 0 Z M54.19897461 12.27905273 C53.20131577 12.77634384 52.20365692 13.27363495 51.17576599 13.78599548 C50.09553665 14.32970291 49.01530731 14.87341034 47.90234375 15.43359375 C46.79774307 15.9861232 45.6931424 16.53865265 44.55506897 17.10792542 C41.61618111 18.57927058 38.67917156 20.05428651 35.74285889 21.53076172 C32.75181451 23.03300842 29.75745173 24.52860323 26.76367188 26.02539062 C24.49720671 27.16108098 22.23092441 28.29713637 19.96484375 29.43359375 C18.34146339 30.24611855 18.34146339 30.24611855 16.68528748 31.07505798 C15.69078079 31.57550125 14.69627411 32.07594452 13.67163086 32.59155273 C12.35164345 33.25440529 12.35164345 33.25440529 11.00498962 33.9306488 C9.05982539 34.84312364 9.05982539 34.84312364 8 36 C7.90594858 37.9943173 7.88256751 39.99199543 7.88647461 41.98852539 C7.88655014 43.26977798 7.88662567 44.55103058 7.88670349 45.87110901 C7.89181091 47.27995848 7.89702691 48.68880756 7.90234375 50.09765625 C7.90420798 51.53112234 7.90563186 52.96458907 7.90663147 54.39805603 C7.91045628 58.17759957 7.92028623 61.9571049 7.93133545 65.7366333 C7.94155037 69.59069298 7.94612926 73.44475882 7.95117188 77.29882812 C7.96190854 84.86590287 7.97898451 92.43294609 8 100 C13.46637643 102.88283478 18.93505814 105.76125523 24.40570068 108.63598633 C26.03936624 109.49492429 27.67260628 110.35467253 29.30523682 111.21557617 C33.4501788 113.4007024 37.60486784 115.56474655 41.77563477 117.70019531 C43.16070393 118.41406292 44.54177748 119.13572516 45.91918945 119.86425781 C47.96420696 120.94425083 50.02098408 121.99786977 52.08203125 123.046875 C52.69142044 123.3758075 53.30080963 123.70473999 53.92866516 124.04364014 C56.79608918 125.47122885 58.58697899 126.07323093 61.76904297 125.5090332 C66.41763344 123.33788784 71.03093496 121.11670286 75.61328125 118.80859375 C76.62343796 118.30328629 77.63359467 117.79797882 78.67436218 117.27735901 C80.80086728 116.21260011 82.92640324 115.14590376 85.05102539 114.07739258 C88.31621935 112.43562988 91.58459892 110.8003513 94.85351562 109.16601562 C96.91946057 108.13058683 98.9852223 107.09479236 101.05078125 106.05859375 C102.03299149 105.56693222 103.01520172 105.07527069 104.0271759 104.56871033 C104.92868881 104.11476395 105.83020172 103.66081757 106.7590332 103.19311523 C107.55590042 102.79277573 108.35276764 102.39243622 109.17378235 101.97996521 C110.96343877 101.13280259 110.96343877 101.13280259 112 100 C112.09405142 98.0056827 112.11743249 96.00800457 112.11352539 94.01147461 C112.11344986 92.73022202 112.11337433 91.44896942 112.11329651 90.12889099 C112.10818909 88.72004152 112.10297309 87.31119244 112.09765625 85.90234375 C112.09579202 84.46887766 112.09436814 83.03541093 112.09336853 81.60194397 C112.08954372 77.82240043 112.07971377 74.0428951 112.06866455 70.2633667 C112.05844963 66.40930702 112.05387074 62.55524118 112.04882812 58.70117188 C112.03809146 51.13409713 112.02101549 43.56705391 112 36 C100.72479889 30.02254016 89.41951631 24.11642644 78.00463867 18.40966797 C75.87524447 17.34383915 73.7491724 16.27155066 71.62304688 15.19921875 C70.25800658 14.51523753 68.89278001 13.83162792 67.52734375 13.1484375 C66.89730942 12.82982758 66.26727509 12.51121765 65.6181488 12.18295288 C60.5943179 9.68438068 59.14654123 9.80126711 54.19897461 12.27905273 Z " fill="#6C6C6C" transform="translate(0,0)"/>
<path d="M0 0 C0 17.16 0 34.32 0 52 C-22.11940299 63.64179104 -22.11940299 63.64179104 -30.125 67.625 C-31.41470703 68.27275391 -31.41470703 68.27275391 -32.73046875 68.93359375 C-38.87301587 72 -38.87301587 72 -40 72 C-40 54.84 -40 37.68 -40 20 C-17.88059701 8.35820896 -17.88059701 8.35820896 -9.875 4.375 C-9.01519531 3.94316406 -8.15539062 3.51132812 -7.26953125 3.06640625 C-1.12698413 0 -1.12698413 0 0 0 Z " fill="#4049C7" transform="translate(104,44)"/>
<path d="M0 0 C20.46117784 9.64444172 20.46117784 9.64444172 30.125 14.5 C30.98480469 14.92796875 31.84460938 15.3559375 32.73046875 15.796875 C38.87301587 18.87301587 38.87301587 18.87301587 40 20 C40.09340434 21.62674778 40.11745171 23.25754051 40.11352539 24.88696289 C40.11344986 25.92796646 40.11337433 26.96897003 40.11329651 28.04151917 C40.10813522 29.1737944 40.10297394 30.30606964 40.09765625 31.47265625 C40.0962413 32.62543564 40.09482635 33.77821503 40.09336853 34.96592712 C40.08775005 38.66481064 40.07519442 42.36363464 40.0625 46.0625 C40.05748738 48.56315017 40.05292406 51.06380129 40.04882812 53.56445312 C40.03777462 59.70965588 40.02101852 65.85482369 40 72 C19.53882216 62.35555828 19.53882216 62.35555828 9.875 57.5 C9.01519531 57.07203125 8.15539062 56.6440625 7.26953125 56.203125 C1.12698413 53.12698413 1.12698413 53.12698413 0 52 C-0.09340434 50.37325222 -0.11745171 48.74245949 -0.11352539 47.11303711 C-0.11344986 46.07203354 -0.11337433 45.03102997 -0.11329651 43.95848083 C-0.10813522 42.8262056 -0.10297394 41.69393036 -0.09765625 40.52734375 C-0.0962413 39.37456436 -0.09482635 38.22178497 -0.09336853 37.03407288 C-0.08775005 33.33518936 -0.07519442 29.63636536 -0.0625 25.9375 C-0.05748738 23.43684983 -0.05292406 20.93619871 -0.04882812 18.43554688 C-0.03777462 12.29034412 -0.02101852 6.14517631 0 0 Z " fill="#6B6D6E" transform="translate(16,44)"/>
<path d="M0 0 C0.60161957 0.28158966 1.20323914 0.56317932 1.8230896 0.853302 C3.90919686 1.83808565 5.96613394 2.87051284 8.0234375 3.9140625 C9.14270126 4.4758168 9.14270126 4.4758168 10.28457642 5.04891968 C12.64996797 6.23717966 15.0125047 7.43099382 17.375 8.625 C18.98549127 9.43526526 20.59616651 10.24516498 22.20703125 11.0546875 C26.14016234 13.03223454 30.07074408 15.01476516 34 17 C34 17.66 34 18.32 34 19 C28.710986 21.76818879 23.40931338 24.50972349 18.09423828 27.22753906 C16.28844051 28.15556801 14.48629923 29.09074832 12.68798828 30.03320312 C10.10078414 31.38752092 7.50147515 32.71548776 4.8984375 34.0390625 C4.0982016 34.46498688 3.2979657 34.89091125 2.47348022 35.32974243 C-3.14932147 38.1439361 -3.14932147 38.1439361 -7.08203125 37.47851562 C-8.04496094 36.99060547 -9.00789063 36.50269531 -10 36 C-11.79123291 35.16057861 -11.79123291 35.16057861 -13.61865234 34.30419922 C-14.94314086 33.6417987 -16.26548646 32.97510031 -17.5859375 32.3046875 C-18.28772125 31.95238068 -18.989505 31.60007385 -19.71255493 31.23709106 C-21.93529034 30.12016304 -24.15516549 28.99768046 -26.375 27.875 C-27.88913684 27.11291144 -29.40345796 26.35118888 -30.91796875 25.58984375 C-34.61412431 23.73078965 -38.3077265 21.86675157 -42 20 C-42 18.68 -42 17.36 -42 16 C-36.99583298 13.37420173 -31.97901777 10.77511385 -26.94873047 8.19970703 C-25.23993035 7.32018233 -23.53479092 6.43350685 -21.83349609 5.53955078 C-19.38529028 4.25470721 -16.92501007 2.9962746 -14.4609375 1.7421875 C-13.32620499 1.1361116 -13.32620499 1.1361116 -12.16854858 0.51779175 C-7.37951298 -1.87923698 -5.02824824 -2.50090928 0 0 Z " fill="#6D6D6D" transform="translate(65,20)"/>
<path d="M0 0 C0 11.88 0 23.76 0 36 C14.63785747 35.75703783 14.63785747 35.75703783 25.375 28.4375 C25.91125 27.633125 26.4475 26.82875 27 26 C27.66 25.01 28.32 24.02 29 23 C29 27.62 29 32.24 29 37 C19.00978615 42.31153904 8.99085956 47.55603072 -1.125 52.625 C-2.43065918 53.28121338 -2.43065918 53.28121338 -3.76269531 53.95068359 C-4.56545898 54.35109863 -5.36822266 54.75151367 -6.1953125 55.1640625 C-6.90703613 55.51936035 -7.61875977 55.8746582 -8.35205078 56.24072266 C-10 57 -10 57 -11 57 C-11 39.84 -11 22.68 -11 5 C-2 0 -2 0 0 0 Z " fill="#6C6C6F" transform="translate(75,59)"/>
<path d="M0 0 C11.93103448 0 11.93103448 0 17 3 C20.06666787 6.16559264 20.25307946 9.19006444 20.4375 13.4375 C20.27743822 18.39274589 19.56544907 21.34312916 16 25 C10.12311826 28.45698926 7.36862405 28 0 28 C0 18.76 0 9.52 0 0 Z " fill="#6A6B6D" transform="translate(79,63)"/>
<path d="M0 0 C4.54054054 2.08108108 4.54054054 2.08108108 6 5 C6.58394161 12.12408759 6.58394161 12.12408759 4 16 C3.34 16.66 2.68 17.32 2 18 C2.825 18.474375 3.65 18.94875 4.5 19.4375 C7.22094584 22.22646949 7.42101129 22.74649023 7.5625 26.4375 C7.36761515 29.63993207 6.96873136 31.05652407 5.375 33.9375 C1.97959454 36.88614158 -0.76647302 38.07156326 -5.31640625 37.92578125 C-11.3250998 37.3374501 -11.3250998 37.3374501 -14 36 C-14 34.35 -14 32.7 -14 31 C-13.0409375 31.5259375 -13.0409375 31.5259375 -12.0625 32.0625 C-7.93027393 33.32746717 -4.187786 33.0202072 0 32 C2.28056299 30.11625538 2.28056299 30.11625538 2.4375 27.0625 C2.32258204 23.88733101 2.32258204 23.88733101 -0.0625 22.1875 C-3.3887285 20.84285444 -6.43882765 20.34913454 -10 20 C-10 18.68 -10 17.36 -10 16 C-6.7 15.34 -3.4 14.68 0 14 C0 11.36 0 8.72 0 6 C-2.98997825 4.50501087 -5.70042775 4.88422554 -9 5 C-9.99 5.33 -10.98 5.66 -12 6 C-11.625 3.5625 -11.625 3.5625 -11 1 C-7.55611807 -0.72194097 -3.77311176 -0.37796284 0 0 Z " fill="#0A9EDF" transform="translate(34,59)"/>
<path d="M0 0 C0 8.91 0 17.82 0 27 C-0.99 25.68 -1.98 24.36 -3 23 C-8.19099978 17.26257919 -12.15722252 15.83895621 -19.8125 15.375 C-20.97394531 15.30023438 -22.13539062 15.22546875 -23.33203125 15.1484375 C-24.21246094 15.09945312 -25.09289062 15.05046875 -26 15 C-25 12 -25 12 -22.69921875 10.55786133 C-21.70535156 10.0708374 -20.71148437 9.58381348 -19.6875 9.08203125 C-18.61242187 8.55029297 -17.53734375 8.01855469 -16.4296875 7.47070312 C-15.29789063 6.92349609 -14.16609375 6.37628906 -13 5.8125 C-11.86820313 5.25369141 -10.73640625 4.69488281 -9.5703125 4.11914062 C-1.18114698 0 -1.18114698 0 0 0 Z " fill="#6C6D6F" transform="translate(104,44)"/>
</svg>
