<?xml version="1.0" encoding="UTF-8" standalone="no"?>
<svg
   version="1.0"
   width="130pt"
   height="130pt"
   viewBox="0 0 130 130"
   style=""
   preserveAspectRatio="xMidYMid meet"
   id="svg650"
   sodipodi:docname="3D.svg"
   inkscape:version="1.2.2 (732a01da63, 2022-12-09)"
   xmlns:inkscape="http://www.inkscape.org/namespaces/inkscape"
   xmlns:sodipodi="http://sodipodi.sourceforge.net/DTD/sodipodi-0.dtd"
   xmlns="http://www.w3.org/2000/svg"
   xmlns:svg="http://www.w3.org/2000/svg">
  <defs
     id="defs654" />
  <sodipodi:namedview
     id="namedview652"
     pagecolor="#505050"
     bordercolor="#eeeeee"
     borderopacity="1"
     inkscape:showpageshadow="0"
     inkscape:pageopacity="0"
     inkscape:pagecheckerboard="0"
     inkscape:deskcolor="#505050"
     inkscape:document-units="pt"
     showgrid="false"
     inkscape:zoom="4.8115385"
     inkscape:cx="86.562749"
     inkscape:cy="86.978417"
     inkscape:window-width="1920"
     inkscape:window-height="1017"
     inkscape:window-x="1358"
     inkscape:window-y="-8"
     inkscape:window-maximized="1"
     inkscape:current-layer="svg650" />
  <g
     fill="#000000FF"
     stroke="#000000FF"
     id="g616"
     transform="matrix(1.1768585,0,0,1.1075436,-6.7356114,-11.008919)">
    <path
       d="M 34.75,24.058 9,37.008 V 69 100.993 L 35,114 61,127.007 87,114 113,100.993 V 69 37.007 L 87.007,24.004 C 72.711,16.852 60.899,11.024 60.757,11.054 60.616,11.083 48.913,16.935 34.75,24.058 m 70.366,62.754 -0.384,10.312 -19.882,9.951 -19.883,9.951 L 65.233,90.862 65.5,64.697 85,54.971 104.5,45.245 105,60.873 c 0.275,8.595 0.327,20.268 0.116,25.939 M 57,91.01 v 26 L 37,107 17,96.99 v -26 -26 L 37,55 57,65.01 v 26 M 80.493,28.738 C 91.222,34.094 100,38.712 100,39 c 0,0.288 -8.775,4.904 -19.5,10.259 L 61,58.993 41.5,49.259 C 30.775,43.904 22,39.288 22,39 22,38.611 59.355,19.383 60.743,19.057 c 0.134,-0.031 9.022,4.325 19.75,9.681"
       id="path614" />
  </g>
  <g
     fill="#BFBFBFFF"
     stroke="#BFBFBFFF"
     id="g644"
     transform="translate(2.3381295,0.1558753)" />
  <g
     fill="#BFBFBFFF"
     stroke="#BFBFBFFF"
     id="g648"
     transform="translate(2.3381295,0.1558753)">
    <path
       d="M 100.5,65.5 102,67 100.5,65.5 99,64 l 1.5,1.5"
       id="path646" />
  </g>
  <path
     d="m 43.507309,57.105899 c 6.622112,2.493806 6.622112,2.493806 8.750651,5.99161 0.851644,8.536953 0.851644,8.536953 -2.916884,13.181544 -0.962573,0.790892 -1.925144,1.581785 -2.916883,2.396644 1.203213,0.568454 2.406428,1.13691 3.646103,1.722587 3.968342,3.342085 4.260125,3.965236 4.466479,8.388255 -0.284229,3.837545 -0.865977,5.535078 -3.190343,8.987416 -4.952,3.533425 -8.956981,4.953945 -15.592794,4.779255 -8.763332,-0.70502 -8.763332,-0.70502 -12.664517,-2.3077 0,-1.977241 0,-3.954478 0,-5.991626 1.398737,0.630242 1.398737,0.630242 2.82573,1.273218 6.026614,1.515836 11.484814,1.147642 17.592458,-0.07488 3.326067,-2.257333 3.326067,-2.257333 3.554952,-5.916715 -0.167606,-3.804881 -0.167606,-3.804881 -3.646106,-5.841825 -4.85111,-1.61132 -9.299504,-2.202955 -14.493266,-2.62133 0,-1.581786 0,-3.163569 0,-4.793289 4.812858,-0.790891 9.625716,-1.581784 14.58442,-2.396643 0,-3.163571 0,-6.327141 0,-9.586577 -4.360711,-1.791479 -8.313745,-1.337057 -13.125978,-1.198323 -1.443857,0.395447 -2.887716,0.790893 -4.375326,1.198323 0.546914,-2.92091 0.546914,-2.92091 1.458442,-5.991611 5.022701,-2.06344 10.539995,-1.651242 16.042862,-1.198321 z"
     fill="#0a9edf"
     id="path677"
     style="stroke-width:1.322" />
  <path
     d="m 117.25419,39.091128 c 0,18.888346 0,37.776691 0,57.23741 -27.881313,12.814352 -27.881313,12.814352 -37.972301,17.198732 -1.625665,0.713 -1.625665,0.713 -3.284172,1.44041 -7.74263,3.37525 -7.74263,3.37525 -9.163184,3.37525 0,-18.888344 0,-37.776694 0,-57.237414 27.881323,-12.814345 27.881323,-12.814345 37.972307,-17.198741 1.08378,-0.475331 2.16756,-0.950661 3.28417,-1.440395 7.74263,-3.375252 7.74263,-3.375252 9.16318,-3.375252 z"
     fill="#4049c7"
     id="path667"
     style="stroke-width:1.17789" />
  <g
     fill="#3F48CCFF"
     stroke="#3F48CCFF"
     id="g620"
     transform="matrix(1.2277329,0,0,1.2381428,-19.300179,-15.130295)"
     style="fill:#050773;fill-opacity:1">
    <path
       d="m 76,78 v 18 l 6.25,-0.006 c 3.438,-0.003 7.924,-0.47 9.97,-1.038 11.844,-3.29 16.608,-19.388 8.478,-28.647 C 96.433,61.452 92.483,60 83.532,60 H 76 V 78 M 93.643,65.635 c 4.829,2.291 6.672,6.338 6.153,13.512 -0.641,8.864 -5.597,12.832 -16.046,12.847 L 80,92 V 78 64 h 5.099 c 2.804,0 6.649,0.736 8.544,1.635"
       id="path618"
       style="fill:#050773;fill-opacity:1" />
  </g>
</svg>
